<?xml version="1.0" encoding="utf-8"?>
<svg version="1.1" xmlns:xlink="http://www.w3.org/1999/xlink" width="12px" height="12px" viewBox="210 297  12 12" xmlns="http://www.w3.org/2000/svg">
  <path d="M 216 297  C 219.36 297  222 299.64  222 303  C 222 306.36  219.36 309  216 309  C 212.64 309  210 306.36  210 303  C 210 299.64  212.64 297  216 297  Z " fill-rule="nonzero" fill="#ffffff" stroke="none" />
  <path d="M 216 297.5  C 219.08 297.5  221.5 299.92  221.5 303  C 221.5 306.08  219.08 308.5  216 308.5  C 212.92 308.5  210.5 306.08  210.5 303  C 210.5 299.92  212.92 297.5  216 297.5  Z " stroke-width="1" stroke="#797979" fill="none" />
  <path d="M 216 306  C 214.32 306  213 304.68  213 303  C 213 301.32  214.32 300  216 300  C 217.68 300  219 301.32  219 303  C 219 304.68  217.68 306  216 306  " fill-rule="nonzero" fill="#797979" stroke="none" />
</svg>