<?xml version="1.0" encoding="utf-8"?>
<svg version="1.1" xmlns:xlink="http://www.w3.org/1999/xlink" width="12px" height="12px" viewBox="310 297  12 12" xmlns="http://www.w3.org/2000/svg">
  <path d="M 316 297  C 319.36 297  322 299.64  322 303  C 322 306.36  319.36 309  316 309  C 312.64 309  310 306.36  310 303  C 310 299.64  312.64 297  316 297  Z " fill-rule="nonzero" fill="#ffffff" stroke="none" />
  <path d="M 316 297.5  C 319.08 297.5  321.5 299.92  321.5 303  C 321.5 306.08  319.08 308.5  316 308.5  C 312.92 308.5  310.5 306.08  310.5 303  C 310.5 299.92  312.92 297.5  316 297.5  Z " stroke-width="1" stroke="#797979" fill="none" />
  <path d="M 316 306  C 314.32 306  313 304.68  313 303  C 313 301.32  314.32 300  316 300  C 317.68 300  319 301.32  319 303  C 319 304.68  317.68 306  316 306  " fill-rule="nonzero" fill="#797979" stroke="none" />
</svg>